<svg viewBox="0 0 860 380" xmlns="http://www.w3.org/2000/svg" font-family="Helvetica,Arial,sans-serif">
<rect x="0" y="0" width="860" height="380" fill="#ffffff"/>
<text x="242.5" y="26" text-anchor="middle" font-size="14" font-weight="600" fill="var(--fg,#1a1a1a)">Throughput (RPS)</text>
<line x1="60.0" y1="40.0" x2="60.0" y2="330.0" stroke="#888" stroke-width="1"/>
<line x1="60.0" y1="330.0" x2="425.0" y2="330.0" stroke="#888" stroke-width="1"/>
<line x1="60.0" y1="330.0" x2="425.0" y2="330.0" stroke="#e0e0e0" stroke-width="1"/>
<text x="52.0" y="334.0" text-anchor="end" font-size="10" fill="#666">0</text>
<line x1="60.0" y1="281.7" x2="425.0" y2="281.7" stroke="#e0e0e0" stroke-width="1"/>
<text x="52.0" y="285.7" text-anchor="end" font-size="10" fill="#666">5</text>
<line x1="60.0" y1="233.3" x2="425.0" y2="233.3" stroke="#e0e0e0" stroke-width="1"/>
<text x="52.0" y="237.3" text-anchor="end" font-size="10" fill="#666">10</text>
<line x1="60.0" y1="185.0" x2="425.0" y2="185.0" stroke="#e0e0e0" stroke-width="1"/>
<text x="52.0" y="189.0" text-anchor="end" font-size="10" fill="#666">15</text>
<line x1="60.0" y1="136.7" x2="425.0" y2="136.7" stroke="#e0e0e0" stroke-width="1"/>
<text x="52.0" y="140.7" text-anchor="end" font-size="10" fill="#666">20</text>
<line x1="60.0" y1="88.3" x2="425.0" y2="88.3" stroke="#e0e0e0" stroke-width="1"/>
<text x="52.0" y="92.3" text-anchor="end" font-size="10" fill="#666">25</text>
<line x1="60.0" y1="40.0" x2="425.0" y2="40.0" stroke="#e0e0e0" stroke-width="1"/>
<text x="52.0" y="44.0" text-anchor="end" font-size="10" fill="#666">30</text>
<text x="60.0" y="348" text-anchor="middle" font-size="11" fill="#666">1</text>
<text x="242.5" y="348" text-anchor="middle" font-size="11" fill="#666">4</text>
<text x="425.0" y="348" text-anchor="middle" font-size="11" fill="#666">16</text>
<text x="242.5" y="366" text-anchor="middle" font-size="11" fill="#888">concurrency (users)</text>
<polyline points="60.0,208.0 242.5,172.3 425.0,57.1" fill="none" stroke="#2563eb" stroke-width="2.5"/>
<circle cx="60.0" cy="208.0" r="3.5" fill="#2563eb"/>
<circle cx="242.5" cy="172.3" r="3.5" fill="#2563eb"/>
<circle cx="425.0" cy="57.1" r="3.5" fill="#2563eb"/>
<polyline points="60.0,145.3 242.5,133.4 425.0,125.6" fill="none" stroke="#dc2626" stroke-width="2.5"/>
<circle cx="60.0" cy="145.3" r="3.5" fill="#dc2626"/>
<circle cx="242.5" cy="133.4" r="3.5" fill="#dc2626"/>
<circle cx="425.0" cy="125.6" r="3.5" fill="#dc2626"/>
<circle cx="72.0" cy="386" r="4" fill="#2563eb"/>
<text x="82.0" y="390" font-size="10" fill="#444">batching on</text>
<circle cx="72.0" cy="400" r="4" fill="#dc2626"/>
<text x="82.0" y="404" font-size="10" fill="#444">batching off</text>
<text x="647.5" y="26" text-anchor="middle" font-size="14" font-weight="600" fill="var(--fg,#1a1a1a)">p95 latency (ms)</text>
<line x1="465.0" y1="40.0" x2="465.0" y2="330.0" stroke="#888" stroke-width="1"/>
<line x1="465.0" y1="330.0" x2="830.0" y2="330.0" stroke="#888" stroke-width="1"/>
<line x1="465.0" y1="330.0" x2="830.0" y2="330.0" stroke="#e0e0e0" stroke-width="1"/>
<text x="457.0" y="334.0" text-anchor="end" font-size="10" fill="#666">0</text>
<line x1="465.0" y1="281.7" x2="830.0" y2="281.7" stroke="#e0e0e0" stroke-width="1"/>
<text x="457.0" y="285.7" text-anchor="end" font-size="10" fill="#666">200</text>
<line x1="465.0" y1="233.3" x2="830.0" y2="233.3" stroke="#e0e0e0" stroke-width="1"/>
<text x="457.0" y="237.3" text-anchor="end" font-size="10" fill="#666">400</text>
<line x1="465.0" y1="185.0" x2="830.0" y2="185.0" stroke="#e0e0e0" stroke-width="1"/>
<text x="457.0" y="189.0" text-anchor="end" font-size="10" fill="#666">600</text>
<line x1="465.0" y1="136.7" x2="830.0" y2="136.7" stroke="#e0e0e0" stroke-width="1"/>
<text x="457.0" y="140.7" text-anchor="end" font-size="10" fill="#666">800</text>
<line x1="465.0" y1="88.3" x2="830.0" y2="88.3" stroke="#e0e0e0" stroke-width="1"/>
<text x="457.0" y="92.3" text-anchor="end" font-size="10" fill="#666">1000</text>
<line x1="465.0" y1="40.0" x2="830.0" y2="40.0" stroke="#e0e0e0" stroke-width="1"/>
<text x="457.0" y="44.0" text-anchor="end" font-size="10" fill="#666">1200</text>
<text x="465.0" y="348" text-anchor="middle" font-size="11" fill="#666">1</text>
<text x="647.5" y="348" text-anchor="middle" font-size="11" fill="#666">4</text>
<text x="830.0" y="348" text-anchor="middle" font-size="11" fill="#666">16</text>
<text x="647.5" y="366" text-anchor="middle" font-size="11" fill="#888">concurrency (users)</text>
<polyline points="465.0,301.0 647.5,240.6 830.0,168.1" fill="none" stroke="#2563eb" stroke-width="2.5"/>
<circle cx="465.0" cy="301.0" r="3.5" fill="#2563eb"/>
<circle cx="647.5" cy="240.6" r="3.5" fill="#2563eb"/>
<circle cx="830.0" cy="168.1" r="3.5" fill="#2563eb"/>
<polyline points="465.0,313.6 647.5,267.2 830.0,40.0" fill="none" stroke="#dc2626" stroke-width="2.5"/>
<circle cx="465.0" cy="313.6" r="3.5" fill="#dc2626"/>
<circle cx="647.5" cy="267.2" r="3.5" fill="#dc2626"/>
<circle cx="830.0" cy="40.0" r="3.5" fill="#dc2626"/>
<circle cx="477.0" cy="386" r="4" fill="#2563eb"/>
<text x="487.0" y="390" font-size="10" fill="#444">batching on</text>
<circle cx="477.0" cy="400" r="4" fill="#dc2626"/>
<text x="487.0" y="404" font-size="10" fill="#444">batching off</text>
<text x="430.0" y="374" text-anchor="middle" font-size="10" fill="#999">Locust load test, local Docker (M2 CPU), 1 min per run, real frame - generated by scripts/plot_loadtest.py from reports/loadtest/*.html</text>
</svg>
